<svg width="49" height="49" viewBox="0 0 49 49" fill="none" xmlns="http://www.w3.org/2000/svg">
<g filter="url(#filter0_dd_1_606)">
<rect x="4.4375" y="2.42188" width="40" height="40" rx="12" fill="white" shape-rendering="crispEdges"/>
<path d="M33.9375 22.1714C33.9375 22.7948 33.4359 23.2964 32.8125 23.2964H25.3125V30.7964C25.3125 31.4175 24.8086 31.9219 24.1875 31.9219C23.5664 31.9219 23.0625 31.4198 23.0625 30.7964V23.2964H15.5625C14.9414 23.2964 14.4375 22.793 14.4375 22.1719C14.4375 21.5527 14.9414 21.0464 15.5625 21.0464H23.0625V13.5464C23.0625 12.9253 23.5664 12.4219 24.1875 12.4219C24.8086 12.4219 25.3125 12.9253 25.3125 13.5464V21.0464H32.8125C33.4359 21.0464 33.9375 21.5527 33.9375 22.1714Z" fill="#00A9DE"/>
</g>
<defs>
<filter id="filter0_dd_1_606" x="0.4375" y="0.421875" width="48" height="48" filterUnits="userSpaceOnUse" color-interpolation-filters="sRGB">
<feFlood flood-opacity="0" result="BackgroundImageFix"/>
<feColorMatrix in="SourceAlpha" type="matrix" values="0 0 0 0 0 0 0 0 0 0 0 0 0 0 0 0 0 0 127 0" result="hardAlpha"/>
<feOffset dy="2"/>
<feGaussianBlur stdDeviation="2"/>
<feComposite in2="hardAlpha" operator="out"/>
<feColorMatrix type="matrix" values="0 0 0 0 0.176806 0 0 0 0 0.139861 0 0 0 0 0.139861 0 0 0 0.08 0"/>
<feBlend mode="normal" in2="BackgroundImageFix" result="effect1_dropShadow_1_606"/>
<feColorMatrix in="SourceAlpha" type="matrix" values="0 0 0 0 0 0 0 0 0 0 0 0 0 0 0 0 0 0 127 0" result="hardAlpha"/>
<feOffset dy="1"/>
<feGaussianBlur stdDeviation="1"/>
<feComposite in2="hardAlpha" operator="out"/>
<feColorMatrix type="matrix" values="0 0 0 0 0.176471 0 0 0 0 0.141176 0 0 0 0 0.141176 0 0 0 0.03 0"/>
<feBlend mode="normal" in2="effect1_dropShadow_1_606" result="effect2_dropShadow_1_606"/>
<feBlend mode="normal" in="SourceGraphic" in2="effect2_dropShadow_1_606" result="shape"/>
</filter>
</defs>
</svg>
